@startuml
class Entidades.Equipo
class Entidades.Jugador
class java.util.ArrayList
class java.util.Scanner
class manos.a.la.obra.p5.ManosALaObraP5
manos.a.la.obra.p5.ManosALaObraP5 ..> Entidades.Equipo
manos.a.la.obra.p5.ManosALaObraP5 ..> Entidades.Jugador
manos.a.la.obra.p5.ManosALaObraP5 ..> java.util.ArrayList
manos.a.la.obra.p5.ManosALaObraP5 ..> java.util.Scanner
@enduml